# xmcd
#
# Track frame offsets: 
#        150
#        14118
#        25998
#        38590
#        50813
#        69013
#        82085
#        93743
#        111138
#        126770
#        138483
#        154425
#
# Disc length: 2215 seconds
#
# Revision: 0
# Processed by: cddbd v1.5.1PL2 Copyright (c) Steve Scherf et al.
# Submitted via: ExactAudioCopy v0.95b4
#
DISCID=a808a50c
DTITLE=Augie Meyers - White Boy
DYEAR=1992
DGENRE=Country
TTITLE0=looking for you
TTITLE1=call on me
TTITLE2=pledging my love
TTITLE3=red dress on
TTITLE4=i don't want to lose you
TTITLE5=yes it's me
TTITLE6=damn damn shame
TTITLE7=high texas rider
TTITLE8=song for sara
TTITLE9=she's the blues
TTITLE10=ain't that just too bad
TTITLE11=leave me alone
EXTD=
EXTT0=
EXTT1=
EXTT2=
EXTT3=
EXTT4=
EXTT5=
EXTT6=
EXTT7=
EXTT8=
EXTT9=
EXTT10=
EXTT11=
PLAYORDER=
